# AST/ASF file generated using VICON BodyLanguage
# -----------------------------------------------
:version 1.10
:name VICON
:units
  mass 1.0
  length 0.45
  angle deg
:documentation
   .ast/.asf automatically generated from VICON data using
   VICON BodyBuilder and BodyLanguage model FoxedUp or BRILLIANT.MOD
:root
   order TX TY TZ RX RY RZ
   axis XYZ
   position 0 0 0  
   orientation 0 0 0 
:bonedata
  begin
     id 1 
     name lhipjoint
     direction 0.729592 -0.560644 0.39163 
     length 2.81907 
     axis 0 0 0  XYZ
  end
  begin
     id 2 
     name lfemur
     direction 0.34202 -0.939693 0  
     length 5.92797  
     axis 0 0 20  XYZ
    dof rx ry rz
    limits (-160.0 20.0)
           (-70.0 70.0)
           (-60.0 70.0)
  end
  begin
     id 3 
     name ltibia
     direction 0.34202 -0.939693 0   
     length 7.88118   
     axis 0 0 20   XYZ
    dof rx
    limits (-10.0 170.0)
  end
  begin
     id 4 
     name lfoot
     direction 0.0476411 -0.130893 0.990251   
     length 1.97348   
     axis -90 7.62852e-016 20   XYZ
    dof rx rz
    limits (-45.0 90.0)
           (-70.0 20.0)
  end
  begin
     id 5 
     name ltoes
     direction 1.53635e-011 -4.21786e-011 1   
     length 0.999366   
     axis -90 7.62852e-016 20   XYZ
    dof rx
    limits (-90.0 20.0)
  end
  begin
     id 6 
     name rhipjoint
     direction -0.702143 -0.583724 0.407752   
     length 2.70761  
     axis 0 0 0  XYZ 
  end
  begin
     id 7 
     name rfemur
     direction -0.34202 -0.939693 0   
     length 5.98021   
     axis 0 0 -20   XYZ
    dof rx ry rz
    limits (-160.0 20.0)
           (-70.0 70.0)
           (-70.0 60.0)
  end
  begin
     id 8 
     name rtibia
     direction -0.34202 -0.939693 0   
     length 7.66627   
     axis 0 0 -20   XYZ
    dof rx
    limits (-10.0 170.0)
 end
 begin
     id 9 
     name rfoot
     direction -0.0516088 -0.141794 0.98855   
     length 2.01387  
     axis -90 -7.62852e-016 -20   XYZ
    dof rx rz
    limits (-45.0 90.0)
           (-20.0 70.0)
  end
  begin
     id 10 
     name rtoes
     direction -1.53568e-011 -4.21939e-011 1   
     length 1.01862   
     axis -90 -7.62852e-016 -20   XYZ
    dof rx
    limits (-90.0 20.0)
  end
  begin
     id 11 
     name lowerback
     direction -0.0436953 0.98817 -0.147007   
     length 1.83615   
     axis 0 0 0   XYZ
    dof rx ry rz
    limits (-20.0 45.0)
           (-30.0 30.0)
           (-30.0 30.0)
  end
  begin
     id 12 
     name upperback
     direction 0.0239184 0.998197 0.0550483   
     length 1.80285   
     axis 0 0 0   XYZ
    dof rx ry rz
    limits (-20.0 45.0)
           (-30.0 30.0)
           (-30.0 30.0)
  end
  begin
     id 13 
     name thorax
     direction 0.0460768 0.990713 0.127927   
     length 1.87059   
     axis 0 0 0   XYZ
    dof rx ry rz
    limits (-20.0 45.0)
           (-30.0 30.0)
           (-30.0 30.0)
  end
  begin
     id 14 
     name lowerneck
     direction -0.0234223 0.997727 0.0631897   
     length 1.79511   
     axis 0 0 0   XYZ
    dof rx ry rz
    limits (-20.0 45.0)
           (-30.0 30.0)
           (-30.0 30.0)
  end
  begin
     id 15 
     name upperneck
     direction 0.0345303 0.984409 -0.172474   
     length 1.80359   
     axis 0 0 0   XYZ
    dof rx ry rz
    limits (-20.0 45.0)
           (-30.0 30.0)
           (-30.0 30.0)
  end
  begin
     id 16
     name head
     direction 0.00973222 0.9978 -0.0655778  
     length 1.81938  
     axis 0 0 0   XYZ
    dof rx ry rz
    limits (-20.0 45.0)
           (-30.0 30.0)
           (-30.0 30.0)
  end
  begin
     id 17 
     name lclavicle
     direction 0.971201 0.212597 -0.10757  
     length 3.74698  
     axis 0 0 0   XYZ
    dof ry rz
    limits (-20.0 10.0)
           (0.0 20.0)
  end
  begin
     id 18 
     name lhumerus
     direction 1 -4.4896e-011 1.42684e-027   
     length 4.83799   
     axis 180 -30 -90   XYZ
    dof rx ry rz
    limits (-60.0 90.0)
           (-90.0 90.0)
           (-90.0 90.0)
  end
  begin
     id 19
     name lradius
     direction 1 -4.48978e-011 1.53407e-026   
     length 2.68259   
     axis 180 -30 -90   XYZ
    dof rx
    limits (-10.0 170.0)
  end
  begin
     id 20
     name lwrist
     direction 1 -4.48982e-011 3.34345e-026   
     length 1.34129   
     axis -2.22354e-014 90 90   XYZ
    dof ry
    limits (-180.0 0.0)
 end
  begin
     id 21 
     name lhand
     direction 1 -4.48992e-011 6.6869e-026   
     length 0.724765   
     axis -4.26681e-014 90 90   XYZ
    dof rx rz
    limits (-90.0 90.0)
           (-45.0 45.0)
  end
  begin
     id 22 
     name lfingers
     direction 1 -4.48965e-011 1.33738e-025   
     length 0.584325   
     axis -8.53362e-014 90 90   XYZ
    dof rx
    limits (0.0 90.0)
  end
  begin
     id 23
     name lthumb
     direction 0.707107 -6.34915e-011 0.707107   
     length 0.838977   
     axis -90 45 2.85299e-015   XYZ
    dof rx rz
    limits (-45.0 45.0)
           (-45.0 45.0)
  end
  begin
     id 24 
     name rclavicle
     direction -0.987829 0.146084 -0.0534135   
     length 3.83678  
     axis 0 0 0   XYZ 
    dof ry rz
    limits (-10.0 20.0)
           (-20.0 0.0)
  end
  begin
     id 25 
     name rhumerus
     direction -1 -4.48963e-011 -3.4086e-018  
     length 4.61639   
     axis 180 30 90   XYZ
    dof rx ry rz
    limits (-90.0 60.0)
           (-90.0 90.0)
           (-90.0 90.0)
  end
  begin
     id 26 
     name rradius
     direction -1 -4.48983e-011 1.36226e-026   
     length 2.86915   
     axis 180 30 90   XYZ
    dof rx
    limits (-10.0 170.0)
  end
  begin
     id 27 
     name rwrist
     direction -1 -4.48927e-011 3.34345e-026   
     length 1.43458   
     axis -2.22354e-014 -90 -90   XYZ
    dof ry
    limits (-180.0 0.0)
  end
  begin
     id 28
     name rhand
     direction -1 -4.49071e-011 6.6869e-026   
     length 0.726007   
     axis -4.26681e-014 -90 -90   XYZ
    dof rx rz
    limits (-90.0 90.0)
           (-45.0 45.0)
  end
  begin
     id 29
     name rfingers
     direction -1 -4.48886e-011 1.33738e-025   
     length 0.585326   
     axis -8.53362e-014 -90 -90   XYZ
    dof rx
    limits (0.0 90.0)
  end
  begin
     id 30
     name rthumb
     direction -0.707107 -6.34932e-011 0.707107   
     length 0.840414   
     axis -90 -45 -2.85299e-015   XYZ
    dof rx rz
    limits (-45.0 45.0)
           (-45.0 45.0)
  end
:hierarchy
  begin
    root lhipjoint rhipjoint lowerback
    lhipjoint lfemur
    lfemur ltibia
    ltibia lfoot
    lfoot ltoes
    rhipjoint rfemur
    rfemur rtibia
    rtibia rfoot
    rfoot rtoes
    lowerback upperback
    upperback thorax
    thorax lowerneck lclavicle rclavicle
    lowerneck upperneck
    upperneck head
    lclavicle lhumerus
    lhumerus lradius
    lradius lwrist
    lwrist lhand lthumb
    lhand lfingers
    rclavicle rhumerus
    rhumerus rradius
    rradius rwrist
    rwrist rhand rthumb
    rhand rfingers
  end

#!OML:ASF F:\VICON\USERDATA\INSTALL\rory3\rory3.ASF
:FULLY-SPECIFIED
:DEGREES
368
root -0.568165 15.9914 17.7041 0.308702 -2.65697 5.43683
lowerback 13.0485 -0.0682295 -8.45168
upperback -4.68905 -1.53065 0.857224
thorax -12.3499 -0.00915686 6.09684
lowerneck -10.3322 -3.72279 -3.26416
upperneck 19.6932 -4.89682 1.57872
head 7.9026 -2.43136 0.578595
rclavicle -1.07592e-014 2.98177e-014
rhumerus -46.3863 -3.38568 -82.3875
rradius 21.5341
rwrist 9.98088
rhand -7.42423 21.3329
rfingers 7.12502
rthumb 18.4628 -7.81092
lclavicle -1.07592e-014 2.98177e-014
lhumerus -32.3677 3.80909 83.7992
lradius 25.296
lwrist 2.00147
lhand -6.91073 20.3884
lfingers 7.12502
lthumb 18.9567 49.4847
rfemur -35.3337 -1.92392 17.581
rtibia 61.9732
rfoot -8.92014 -5.66078
rtoes 22.9248
lfemur -3.32276 -12.7147 -33.4018
ltibia 23.5142
lfoot -15.0095 9.10411
ltoes 28.7793
369
root -0.572198 15.9911 17.8328 0.372713 -2.69646 5.4888
lowerback 13.0309 -0.0404465 -8.58952
upperback -4.63157 -1.51225 0.870746
thorax -12.2749 0.00527426 6.18459
lowerneck -10.4279 -3.70353 -3.2998
upperneck 19.5832 -4.89571 1.76383
head 7.88894 -2.41494 0.644425
rclavicle -1.51076e-014 -2.90226e-014
rhumerus -46.5565 -3.37575 -82.448
rradius 21.8257
rwrist 9.54878
rhand -7.35933 21.2425
rfingers 7.12502
rthumb 18.5252 -7.89541
lclavicle -1.51076e-014 -2.90226e-014
lhumerus -32.0133 3.35504 84.0088
lradius 25.7224
lwrist 2.35863
lhand -6.99895 20.5226
lfingers 7.12502
lthumb 18.8718 49.6271
rfemur -35.5261 -1.22018 17.516
rtibia 59.6682
rfoot -8.98346 -5.63419
rtoes 22.6134
lfemur -2.49264 -12.7952 -33.6006
ltibia 22.8901
lfoot -15.2297 9.29607
ltoes 27.9085
370
root -0.577751 15.995 17.9618 0.472466 -2.701 5.63109
lowerback 13.0359 -0.0195968 -8.82807
upperback -4.66004 -1.53318 0.83941
thorax -12.307 0.0153705 6.29098
lowerneck -10.4237 -3.69255 -3.2302
upperneck 19.4936 -4.911 1.8582
head 7.85931 -2.40835 0.663176
rclavicle -2.74323e-014 2.06736e-014
rhumerus -46.8972 -3.15592 -82.6713
rradius 22.1486
rwrist 9.0122
rhand -7.35473 21.2519
rfingers 7.12502
rthumb 18.5296 -7.88562
lclavicle -2.74323e-014 2.06736e-014
lhumerus -31.8214 2.88826 84.1395
lradius 25.9861
lwrist 2.54905
lhand -7.16933 19.8986
lfingers 7.12502
lthumb 18.708 49.019
rfemur -35.6834 -0.431972 17.2558
rtibia 57.215
rfoot -8.60328 -6.10078
rtoes 25.2038
lfemur -1.6027 -12.8607 -33.8704
ltibia 22.1383
lfoot -15.3971 9.42754
ltoes 27.2457
371
root -0.584159 16.0025 18.0899 0.624634 -2.66603 5.71989
lowerback 13.0221 -0.0341712 -9.00348
upperback -4.72435 -1.58788 0.829532
thorax -12.363 0.00827472 6.3932
lowerneck -10.4123 -3.74504 -3.29528
upperneck 19.4542 -4.99952 1.9953
head 7.85204 -2.4425 0.710393
rclavicle 9.44227e-016 2.82274e-014
rhumerus -47.1775 -3.11211 -82.7297
rradius 22.23
rwrist 9.16595
rhand -7.55708 21.4305
rfingers 7.12502
rthumb 18.335 -7.72539
lclavicle 9.44227e-016 2.82274e-014
lhumerus -31.6631 2.44458 84.2805
lradius 26.2691
lwrist 2.91818
lhand -7.46409 19.3051
lfingers 7.12502
lthumb 18.4244 48.4525
rfemur -35.8274 0.441793 16.9713
rtibia 54.7049
rfoot -8.20753 -6.76833
rtoes 25.7315
lfemur -0.694273 -12.8995 -34.0458
ltibia 21.2142
lfoot -15.4352 9.47908
ltoes 27.3205
372
root -0.590947 16.0101 18.2152 0.803466 -2.62243 5.71301
lowerback 13.0126 -0.065397 -9.04154
upperback -4.80238 -1.64219 0.811313
thorax -12.4383 -0.00836971 6.40806
lowerneck -10.1137 -3.80289 -3.32919
upperneck 19.1861 -5.10819 2.15218
head 7.71786 -2.48576 0.764106
rclavicle 1.63997e-014 1.51076e-014
rhumerus -47.3299 -3.37693 -82.6713
rradius 22.0512
rwrist 9.567
rhand -7.8396 21.7602
rfingers 7.12502
rthumb 18.0632 -7.42101
lclavicle 1.63997e-014 1.51076e-014
lhumerus -31.5365 2.08404 84.355
lradius 26.7615
lwrist 3.39912
lhand -7.67664 19.2124
lfingers 7.12502
lthumb 18.2199 48.379
rfemur -35.9353 1.41504 16.7451
rtibia 52.1683
rfoot -7.8849 -7.3177
rtoes 24.9459
lfemur 0.207022 -12.9659 -34.1085
ltibia 20.1853
lfoot -15.3139 9.60533
ltoes 27.1936
373
root -0.595815 16.0086 18.3418 0.930481 -2.61904 5.94918
lowerback 12.9008 -0.042715 -9.32667
upperback -4.77394 -1.65691 0.753306
thorax -12.3348 -0.00260531 6.5039
lowerneck -10.0079 -3.84585 -3.32156
upperneck 18.9768 -5.17946 2.21788
head 7.63355 -2.5147 0.780776
rclavicle -2.41026e-014 -7.95139e-016
rhumerus -47.3526 -3.44987 -82.7104
rradius 21.9823
rwrist 9.51681
rhand -8.0264 21.8408
rfingers 7.12502
rthumb 17.8834 -7.35692
lclavicle -2.41026e-014 -7.95139e-016
lhumerus -31.2433 2.05508 84.3919
lradius 27.2855
lwrist 3.67801
lhand -7.66113 19.333
lfingers 7.12502
lthumb 18.2349 48.4983
rfemur -36.017 2.41737 16.1838
rtibia 49.6756
rfoot -7.79661 -7.84705
rtoes 25.3305
lfemur 1.20321 -13.0711 -34.4422
ltibia 19.0984
lfoot -15.4173 9.464
ltoes 28.7563
374
root -0.601423 16.0056 18.4708 1.08654 -2.56195 6.28157
lowerback 12.7236 -0.00112612 -9.692
upperback -4.73111 -1.6549 0.665074
thorax -12.1786 0.0118049 6.60501
lowerneck -10.3429 -3.95945 -3.22612
upperneck 19.244 -5.32539 2.0926
head 7.78006 -2.58457 0.700779
rclavicle -3.80424e-014 5.56597e-015
rhumerus -47.3919 -3.53145 -82.7462
rradius 22.0084
rwrist 9.35357
rhand -8.11568 21.8581
rfingers 7.12502
rthumb 17.7975 -7.34745
lclavicle -3.80424e-014 5.56597e-015
lhumerus -30.9114 1.79371 84.5405
lradius 27.8715
lwrist 3.91068
lhand -7.22709 19.9516
lfingers 7.12502
lthumb 18.6524 49.0773
rfemur -36.0672 3.49607 15.4345
rtibia 47.1653
rfoot -8.12286 -8.38292
rtoes 25.5832
lfemur 2.18763 -13.278 -34.8564
ltibia 18.0004
lfoot -15.6111 9.12329
ltoes 30.926
375
root -0.6084 16.0062 18.5928 1.31209 -2.5064 6.36343
lowerback 12.7521 0.0144753 -9.81073
upperback -4.78007 -1.66189 0.66009
thorax -12.2512 0.0237978 6.67065
lowerneck -10.8581 -4.05748 -3.20726
upperneck 19.6678 -5.44551 2.01858
head 8.01449 -2.64037 0.64685
rclavicle -8.44835e-015 -3.18055e-015
rhumerus -47.4805 -3.44954 -82.854
rradius 22.0762
rwrist 9.23067
rhand -8.23866 21.544
rfingers 7.12502
rthumb 17.6792 -7.67226
lclavicle -8.44835e-015 -3.18055e-015
lhumerus -30.7411 1.41177 84.7403
lradius 28.5184
lwrist 4.16246
lhand -6.85549 20.5546
lfingers 7.12502
lthumb 19.0098 49.6456
rfemur -36.1391 4.7612 14.8711
rtibia 44.6222
rfoot -8.2444 -9.11578
rtoes 25.1428
lfemur 3.13916 -13.3326 -34.9788
ltibia 16.7701
lfoot -15.3875 9.12029
ltoes 31.2894
376
root -0.617272 16.0072 18.7152 1.54693 -2.42565 6.30752
lowerback 12.8052 0.00635462 -9.75653
upperback -4.85727 -1.67231 0.671966
thorax -12.3712 0.0252378 6.65903
lowerneck -10.9229 -4.14721 -3.39911
upperneck 19.5934 -5.5805 2.26659
head 8.0186 -2.69411 0.745029
rclavicle 8.19987e-015 2.54444e-014
rhumerus -47.5644 -3.5883 -82.8055
rradius 22.0394
rwrist 9.48485
rhand -7.92235 20.8992
rfingers 7.12502
rthumb 17.9835 -8.28938
lclavicle 8.19987e-015 2.54444e-014
lhumerus -30.6218 1.19698 84.8582
lradius 29.0676
lwrist 4.43878
lhand -6.8248 20.576
lfingers 7.12502
lthumb 19.0393 49.6642
rfemur -36.1384 6.11601 14.3788
rtibia 42.0058
rfoot -8.07404 -10.07
rtoes 25.0455
lfemur 4.07203 -13.1457 -34.9495
ltibia 15.5511
lfoot -14.8296 9.38573
ltoes 28.5823
377
root -0.62585 16.01 18.8457 1.72781 -2.31762 6.35301
lowerback 12.6484 -0.0165306 -9.77693
upperback -4.86769 -1.69179 0.652726
thorax -12.2848 0.0115934 6.64781
lowerneck -10.5294 -4.21659 -3.7191
upperneck 19.1299 -5.69857 2.67489
head 7.8197 -2.74082 0.931165
rclavicle 6.41081e-015 -2.78299e-015
rhumerus -47.5659 -3.75897 -82.746
rradius 21.8937
rwrist 9.70254
rhand -7.88363 21.0656
rfingers 7.12502
rthumb 18.0208 -8.11954
lclavicle 6.41081e-015 -2.78299e-015
lhumerus -30.3428 0.88283 84.9974
lradius 29.3046
lwrist 4.66434
lhand -6.96627 20.3316
lfingers 7.12502
lthumb 18.9033 49.4331
rfemur -35.9928 7.51404 13.6788
rtibia 39.3116
rfoot -7.96017 -11.0263
rtoes 24.8381
lfemur 5.06131 -13.1112 -35.0743
ltibia 14.4497
lfoot -14.4875 9.66582
ltoes 24.844
378
root -0.632607 16.0146 18.974 1.91375 -2.21882 6.34694
lowerback 12.4886 -0.0366452 -9.75869
upperback -4.87507 -1.69787 0.652778
thorax -12.1953 0.00191778 6.63316
lowerneck -10.2211 -4.21285 -3.82441
upperneck 18.8121 -5.72354 2.92009
head 7.67083 -2.74235 1.03485
rclavicle 2.33572e-015 2.78299e-014
rhumerus -47.5069 -4.20976 -82.4753
rradius 21.6797
rwrist 10.2378
rhand -8.0117 21.9726
rfingers 7.12502
rthumb 17.8976 -7.22388
lclavicle 2.33572e-015 2.78299e-014
lhumerus -30.0658 0.495522 85.186
lradius 29.5079
lwrist 5.15581
lhand -7.20889 20.155
lfingers 7.12502
lthumb 18.6699 49.2791
rfemur -35.8206 9.06523 12.9105
rtibia 36.5983
rfoot -7.95692 -12.0448
rtoes 23.9977
lfemur 6.06487 -13.2108 -35.142
ltibia 13.297
lfoot -14.2872 9.78018
ltoes 23.0537
379
root -0.641443 16.0161 19.1045 2.04517 -2.05226 6.19909
lowerback 12.4083 -0.0601198 -9.63075
upperback -4.87076 -1.69313 0.691548
thorax -12.142 -0.00742015 6.59985
lowerneck -10.0734 -4.251 -3.77989
upperneck 18.6174 -5.80472 3.03152
head 7.58523 -2.77039 1.06017
rclavicle 8.05078e-015 1.19271e-015
rhumerus -47.5384 -4.45366 -82.4123
rradius 21.6094
rwrist 10.4482
rhand -8.13113 22.2
rfingers 7.12502
rthumb 17.7827 -7.00692
lclavicle 8.05078e-015 1.19271e-015
lhumerus -29.9193 -0.066495 85.4498
lradius 29.9416
lwrist 5.8686
lhand -7.33859 20.3915
lfingers 7.12502
lthumb 18.5452 49.5275
rfemur -35.5044 10.7057 12.2394
rtibia 33.9253
rfoot -8.14176 -13.131
rtoes 23.6626
lfemur 7.1895 -13.1166 -35.0064
ltibia 12.026
lfoot -13.9562 9.73434
ltoes 21.5688
380
root -0.651865 16.0134 19.2371 2.16175 -1.83776 6.1979
lowerback 12.3204 -0.0804054 -9.59944
upperback -4.80947 -1.7049 0.66168
thorax -12.0162 -0.0267339 6.54647
lowerneck -9.95613 -4.30492 -3.75593
upperneck 18.3136 -5.9034 3.17136
head 7.47181 -2.80609 1.09643
rclavicle 1.26477e-014 1.86858e-014
rhumerus -47.3601 -4.54862 -82.5131
rradius 21.4303
rwrist 10.339
rhand -8.16953 22.0441
rfingers 7.12502
rthumb 17.7457 -7.16614
lclavicle 1.26477e-014 1.86858e-014
lhumerus -29.6615 -0.43724 85.6161
lradius 30.2527
lwrist 5.90337
lhand -7.30091 20.4314
lfingers 7.12502
lthumb 18.5814 49.5639
rfemur -35.237 12.4545 11.2924
rtibia 31.4179
rfoot -8.44276 -14.2086
rtoes 23.96
lfemur 8.40596 -13.2467 -35.0327
ltibia 10.6303
lfoot -13.695 9.58634
ltoes 22.6762
